<?xml version="1.0" encoding="UTF-8"?>
<svg version="1.1" viewBox="0 0 109 17.007" xmlns="http://www.w3.org/2000/svg">
 <g transform="translate(.010067 .010562)">
  <rect x=".48065" y=".48015" width="108.02" height="16.026" fill="#d71a21" fill-rule="evenodd" stroke="#d71a21" stroke-width=".98143"/>
 </g>
 <g transform="translate(.13912 .10134)" fill="#fdffff">
  <path d="m6.8762 5.1262v7.0898h-1.7383v-7.0898c0-0.35937-0.03125-0.66797-0.07813-0.91797-1.3672 0-2.1758-0.30078-2.4219-0.91797h4.5703c1.2734 0.0156 1.957 0.40235 2.0508 1.1524-0.34375-0.15625-0.85547-0.23438-1.543-0.23438l-0.87891-0.0195c0.02344 0.30469 0.03906 0.61719 0.03906 0.9375z"/>
  <path d="m15.017 7.2356c0-1.1016-0.60156-1.6602-1.7969-1.6602-0.44531 0-0.83203 0.11328-1.1523 0.33203-0.23437 0.17188-0.40625 0.38281-0.50781 0.625v-3.2422h-1.5625v8.9258h1.5625v-4.9805c0.23437-0.41407 0.55078-0.625 0.95703-0.625 0.24219 0 0.45703 0.0977 0.64453 0.29297 0.17969 0.1875 0.27344 0.40234 0.27344 0.64453v4.668h1.582z"/>
  <path d="m19.056 11.396c-0.5-0.23437-0.79297-0.6914-0.8789-1.3867 0.17968-0.24218 0.52734-0.48828 1.0352-0.72265 0.55469-0.25781 1.0039-0.56641 1.3477-0.91797 0.375-0.39063 0.5664-0.80078 0.5664-1.2305 0-0.4375-0.19531-0.80859-0.58593-1.1133-0.38282-0.3125-0.85547-0.45703-1.4258-0.44922-0.89063 0-1.5938 0.36328-2.1094 1.0742-0.46875 0.66406-0.70312 1.4766-0.70312 2.4219 0 0.92969 0.27734 1.6953 0.83984 2.3047 0.57031 0.61719 1.2891 0.91797 2.1484 0.91797 0.24218-0.0117 0.47265-0.0391 0.68359-0.0781 0.50781-0.0781 0.88672-0.22266 1.1523-0.44922v-0.9961c-0.35156 0.52344-0.79687 0.78125-1.3281 0.78125-0.25 0-0.5-0.0469-0.74219-0.15625zm-0.99609-2.1094c-0.0156-0.17969-0.0195-0.375-0.0195-0.58594 0-1.6484 0.3164-2.5 0.95703-2.5391 0.49219-0.0469 0.74219 0.20703 0.74219 0.76172 0 0.36718-0.0937 0.71484-0.27344 1.0352-0.17188 0.3125-0.41016 0.58203-0.72266 0.80078-0.40625 0.28907-0.63672 0.46485-0.68359 0.52735z"/>
  <path d="m29.794 11.337h-2.4805l0.0195-4.0039h1.1524c0.22265 0 0.41797 0.0156 0.58593 0.0391 0.44141 0.0547 0.75391 0.13281 0.9375 0.23437-0.16797-0.72656-0.74218-1.0938-1.7188-1.0938h-0.95703v-0.35156-2.0117h1.0547c0.70312 0.0156 1.1914 0.0352 1.4648 0.0586 0.48047 0.0781 0.91797 0.25 1.3086 0.50782-0.0664-0.54688-0.38282-0.9375-0.95703-1.1719-0.39063-0.16406-0.82032-0.25391-1.2891-0.25391h-3.3203v8.9258h4.2774c0.45703 0 0.8125-0.16407 1.0742-0.50782 0.23438-0.27343 0.35157-0.59375 0.35157-0.97656-0.23438 0.40625-0.73438 0.60547-1.5039 0.60547z"/>
  <path d="m40.7 7.3723c0-0.625-0.19531-1.0977-0.58594-1.4258-0.33984-0.24218-0.75-0.37109-1.2305-0.37109-0.79688 0-1.3633 0.36719-1.6992 1.0938-0.21094-0.72656-0.77735-1.0938-1.6992-1.0938-0.26172 0.0156-0.4961 0.0586-0.70313 0.13672-0.50781 0.19531-0.86718 0.54297-1.0742 1.0352l-0.0195-1.1133h-1.5039v6.582h1.5625l0.0195-4.668c0.0117-0.16407 0.0977-0.33985 0.2539-0.52735 0.19532-0.25781 0.44922-0.39062 0.76172-0.39062 0.20703 0 0.40235 0.0977 0.58594 0.29297 0.19531 0.1875 0.29297 0.40234 0.29297 0.64453v4.6484h1.5625v-4.6875c0.1953-0.58594 0.51171-0.87891 0.95702-0.87891 0.24609 0 0.46094 0.11328 0.64453 0.33203 0.19531 0.21094 0.29297 0.44531 0.29297 0.70313v0.58593l0.0195 3.9453h1.582l-0.0195-4.8437z"/>
  <path d="m43.755 5.634h-1.5625v6.582h1.5625zm-0.78125-0.91796c0.22266 0 0.40234-0.0781 0.54687-0.23438 0.15625-0.15625 0.23438-0.33594 0.23438-0.54687 0-0.20313-0.0781-0.37891-0.23438-0.52735-0.14453-0.15625-0.32421-0.23437-0.54687-0.23437s-0.41016 0.0781-0.56641 0.23437c-0.15625 0.14844-0.23437 0.32422-0.23437 0.52735 0 0.21093 0.0781 0.39062 0.23437 0.54687 0.15625 0.15625 0.34375 0.23438 0.56641 0.23438z"/>
  <path d="m49.072 5.8879c-0.1875-0.20312-0.48438-0.3125-0.89844-0.3125-0.17188 0.0156-0.34375 0.0703-0.50781 0.15625-0.38282 0.21094-0.66016 0.58594-0.83985 1.1328v-1.2305h-1.5625l0.0195 6.582h1.543v-4.3945c0-0.23437 0.1211-0.47656 0.3711-0.74218 0.27343-0.27344 0.57031-0.41016 0.89843-0.41016 0.35157 0 0.67188 0.16797 0.97657 0.48828v-1.2695z"/>
  <path d="m52.052 5.5754c-0.625 0-1.168 0.19531-1.6211 0.58594v0.99609c0.10156-0.21875 0.24219-0.39844 0.42969-0.54687 0.24219-0.19532 0.51172-0.29297 0.80078-0.29297 0.35156 0 0.61328 0.11328 0.80078 0.33203 0.11719 0.13281 0.17578 0.29297 0.17578 0.48828 0 0.25-0.0586 0.44922-0.17578 0.60547-0.11719 0.14844-0.32812 0.28906-0.625 0.42969-0.83594 0.36718-1.3672 0.64062-1.6016 0.82031-0.60156 0.44531-0.89844 0.99219-0.89844 1.6406 0 0.14844 8e-3 0.30469 0.0391 0.46875 0.15625 0.79688 0.67188 1.1914 1.5625 1.1914 0.35938 0 0.69141-0.0977 0.9961-0.29297 0.27343-0.14062 0.46875-0.32031 0.58593-0.54687v0.76172h1.5039v-4.9609c8e-3 -0.46875-0.14844-0.85938-0.46875-1.1719-0.38281-0.33593-0.87891-0.50781-1.5039-0.50781zm-0.46875 6.0156c-0.21093 0-0.39062-0.0664-0.54687-0.21485-0.1875-0.16406-0.28906-0.39844-0.3125-0.70312-0.0391-0.4375 0.0625-0.82813 0.3125-1.1719 0.16406-0.21875 0.43359-0.44922 0.80078-0.68359 0.375-0.23438 0.59375-0.37891 0.66406-0.44922v2.7344c8e-3 0.0391-0.0586 0.12891-0.21484 0.25391-0.1875 0.15625-0.42188 0.23438-0.70313 0.23438z"/>
  <path d="m58.009 6.3957c0.35156 0 0.67578 0.0703 0.97656 0.19532v-0.95704h-1.4453v-1.5039c-0.21094 0.36719-0.57422 0.77734-1.0938 1.2305-0.5625 0.48437-1.0938 0.83203-1.6016 1.0352l1.1524 0.0195v5.8008h1.543v-5.8008h0.29296c0.0234-8e-3 0.082-0.0195 0.17579-0.0195z"/>
  <path d="m62.267 11.396c-0.5-0.23437-0.79297-0.6914-0.87891-1.3867 0.17969-0.24218 0.52734-0.48828 1.0352-0.72265 0.55468-0.25781 1.0039-0.56641 1.3476-0.91797 0.375-0.39063 0.56641-0.80078 0.56641-1.2305 0-0.4375-0.19531-0.80859-0.58594-1.1133-0.38281-0.3125-0.85547-0.45703-1.4258-0.44922-0.89062 0-1.5938 0.36328-2.1094 1.0742-0.46875 0.66406-0.70313 1.4766-0.70313 2.4219 0 0.92969 0.27735 1.6953 0.83984 2.3047 0.57032 0.61719 1.2891 0.91797 2.1484 0.91797 0.24219-0.0117 0.47266-0.0391 0.6836-0.0781 0.50781-0.0781 0.88671-0.22266 1.1523-0.44922v-0.9961c-0.35156 0.52344-0.79688 0.78125-1.3281 0.78125-0.25 0-0.5-0.0469-0.74218-0.15625zm-0.9961-2.1094c-0.0156-0.17969-0.0195-0.375-0.0195-0.58594 0-1.6484 0.31641-2.5 0.95703-2.5391 0.49219-0.0469 0.74219 0.20703 0.74219 0.76172 0 0.36718-0.0937 0.71484-0.27344 1.0352-0.17187 0.3125-0.41015 0.58203-0.72265 0.80078-0.40625 0.28907-0.63672 0.46485-0.6836 0.52735z"/>
  <path d="m67.861 10.478c0 0.34375-0.11328 0.60157-0.33203 0.78125-0.22657 0.22657-0.54297 0.32813-0.95704 0.3125-0.27343 0-0.53906-0.0859-0.78125-0.27343-0.21093-0.14063-0.36718-0.30078-0.46875-0.48828v1.0156c0.41407 0.3125 0.94532 0.46875 1.6016 0.46875 0.625 0 1.1602-0.19531 1.6211-0.58594 0.47656-0.4375 0.72266-0.96093 0.72266-1.5625 0-0.4375-0.11328-0.82422-0.33203-1.1523-0.21094-0.29688-0.54297-0.58594-0.9961-0.85938-0.5-0.32031-0.75781-0.49218-0.78125-0.50781-0.30469-0.23437-0.44922-0.48828-0.44922-0.76172 0-0.14062 0.0469-0.27343 0.15625-0.39062 0.125-0.14063 0.31641-0.21485 0.56641-0.21485 0.0781 0 0.16016 0.0156 0.25391 0.0391 0.49218 0.0781 0.89843 0.33203 1.2109 0.76172v-0.97657c-0.11718-0.10156-0.32422-0.20312-0.60547-0.3125-0.34375-0.125-0.68359-0.19531-1.0352-0.19531-0.52344 0-0.97656 0.15625-1.3672 0.46875-0.39062 0.3125-0.58594 0.68359-0.58594 1.1133 0 0.85156 0.4336 1.5234 1.3086 2.0312 0.45312 0.26563 0.74609 0.46094 0.8789 0.58594 0.24219 0.21094 0.3711 0.44531 0.3711 0.70312z"/>
  <path d="m80.345 11.513v-4.375h-1.875c0.19531 0.42188 0.29688 1.1094 0.3125 2.0703v1.9922c-0.1875 0.17188-0.42969 0.26563-0.74219 0.27344-0.64062 0-1.2461-0.26172-1.8164-0.80078-0.74219-0.66407-1.1133-1.5664-1.1133-2.7148 0-1.2578 0.25781-2.2852 0.78125-3.0664 0.49218-0.72657 1.0976-1.0938 1.8164-1.0938 0.97657 0 1.625 0.38672 1.9531 1.1523l0.0195-1.3281c-0.46875-0.29688-1.1719-0.44922-2.1094-0.44922-1.2891 0-2.3438 0.48828-3.1641 1.4648-0.75781 0.91406-1.1328 2.0234-1.1328 3.3203 0 1.3984 0.41016 2.4805 1.2305 3.2617 0.78125 0.74219 1.8008 1.1133 3.0664 1.1133 0.35938 0 0.70704-0.0312 1.0352-0.0977 0.76563-0.14063 1.3477-0.37891 1.7383-0.72266z"/>
  <path d="m86.021 5.8879c-0.1875-0.20312-0.48437-0.3125-0.89843-0.3125-0.17188 0.0156-0.34375 0.0703-0.50781 0.15625-0.38282 0.21094-0.66016 0.58594-0.83984 1.1328v-1.2305h-1.5625l0.0195 6.582h1.543v-4.3945c0-0.23437 0.12109-0.47656 0.37109-0.74218 0.27344-0.27344 0.57032-0.41016 0.89844-0.41016 0.35156 0 0.67188 0.16797 0.97656 0.48828v-1.2695z"/>
  <path d="m89.368 5.5754c-0.82031 0-1.5234 0.33203-2.1094 0.99609-0.57812 0.65625-0.85936 1.4414-0.85936 2.3633 0 1.0703 0.28124 1.9102 0.85936 2.5195 0.54688 0.5625 1.25 0.83984 2.1094 0.83984 0.82031 0 1.5117-0.32031 2.0898-0.97656 0.58594-0.66406 0.87891-1.4531 0.87891-2.3828 0-1.0391-0.29297-1.8633-0.87891-2.4805-0.54687-0.58594-1.2461-0.87891-2.0898-0.87891zm-0.0195 5.957c-0.36719 0-0.67969-0.25781-0.9375-0.78125-0.26563-0.53125-0.39063-1.1602-0.39063-1.8945 0-0.74219 0.125-1.3711 0.39063-1.8945 0.25781-0.53125 0.57031-0.80078 0.9375-0.80078 0.33594 0 0.63281 0.26953 0.89844 0.80078 0.25781 0.52344 0.39062 1.1523 0.39062 1.8945 0 0.73438-0.13281 1.3633-0.39062 1.8945-0.26563 0.52344-0.5625 0.78125-0.89844 0.78125z"/>
  <path d="m95.447 12.294c0.25782-0.0273 0.49219-0.0703 0.70314-0.13672 0.47656-0.16406 0.80077-0.46875 0.95702-0.89844v0.95704h1.543v-6.5625h-1.543v4.8047c-0.0391 0.14844-0.10937 0.26953-0.19531 0.3711-0.21094 0.25-0.48828 0.38281-0.83985 0.39062-0.58593 0-0.89062-0.33984-0.89843-1.0352v-4.5508h-1.543l-0.0195 4.8242c0 0.65625 0.19922 1.1328 0.60547 1.4453 0.3125 0.26562 0.72265 0.39062 1.2305 0.39062z"/>
  <path d="m103.31 5.5754c-0.26562 0-0.51952 0.0586-0.76172 0.17578-0.23437 0.11719-0.4414 0.28906-0.60547 0.50781v-0.625h-1.543v9.2773h1.543v-3.0274c0.35158 0.27344 0.72267 0.41016 1.1133 0.41016 0.76561-0.0273 1.4062-0.33984 1.914-0.95703 0.53125-0.64844 0.80079-1.4922 0.80079-2.5391 0-0.85938-0.21484-1.6016-0.64454-2.2266-0.46874-0.66406-1.0742-0.99609-1.8164-0.99609zm-0.70312 0.76172c0.50781 0 0.88672 0.25391 1.1524 0.76172 0.21874 0.42187 0.33202 0.99219 0.33202 1.7188 0 0.875-0.0547 1.5234-0.15625 1.9531-0.14844 0.67969-0.4414 1.0156-0.87889 1.0156-0.54688 0-0.91798-0.27735-1.1133-0.83985v-4.2578c0.125-0.23437 0.35158-0.35156 0.66407-0.35156z"/>
 </g>
</svg>
