<?xml version="1.0" encoding="UTF-8"?>
<svg xmlns="http://www.w3.org/2000/svg"  version="1.1" width="2400px" height="2503px" style="shape-rendering:geometricPrecision; text-rendering:geometricPrecision; image-rendering:optimizeQuality; fill-rule:evenodd; clip-rule:evenodd" xmlns:xlink="http://www.w3.org/1999/xlink">
<g><path style="opacity:0.998" fill="#bbad78" d="M 470.5,2.5 C 790.333,1.33359 1110.33,1.16693 1430.5,2C 1593.56,279.281 1756.22,556.781 1918.5,834.5C 1917.83,834.833 1917.17,835.167 1916.5,835.5C 1596.17,835.5 1275.83,835.5 955.5,835.5C 794.224,557.569 632.558,279.903 470.5,2.5 Z"/></g>
<g><path style="opacity:0.999" fill="#59666b" d="M 470.5,2.5 C 632.558,279.903 794.224,557.569 955.5,835.5C 800.234,1115.7 645.234,1396.03 490.5,1676.5C 489.833,1676.5 489.5,1676.83 489.5,1677.5C 325.914,1397.33 162.581,1117 -0.5,836.5C -0.5,835.167 -0.5,833.833 -0.5,832.5C 156.5,555.833 313.5,279.167 470.5,2.5 Z"/></g>
<g><path style="opacity:0.999" fill="#59656b" d="M 1918.5,834.5 C 2078.83,1112.5 2239.17,1390.5 2399.5,1668.5C 2399.5,1669.83 2399.5,1671.17 2399.5,1672.5C 2239,1948.83 2079,2225.5 1919.5,2502.5C 1918.83,2502.5 1918.17,2502.5 1917.5,2502.5C 1758.67,2226.83 1599.34,1951.5 1439.5,1676.5C 1598.77,1396.3 1757.77,1115.97 1916.5,835.5C 1917.17,835.167 1917.83,834.833 1918.5,834.5 Z"/></g>
<g><path style="opacity:0.999" fill="#bbad78" d="M 490.5,1676.5 C 806.833,1676.5 1123.17,1676.5 1439.5,1676.5C 1599.34,1951.5 1758.67,2226.83 1917.5,2502.5C 1599.17,2502.5 1280.83,2502.5 962.5,2502.5C 804.581,2227.66 646.914,1952.66 489.5,1677.5C 489.5,1676.83 489.833,1676.5 490.5,1676.5 Z"/></g>
</svg>
